{"title":"Laura Cantrell - Not The Tremblin' Kind EAC Cue Cover","uid":4880856,"size":321002360,"categoryP":"audio","categoryS":"flac","magnet":"?xt=urn:btih:c87cc042187a4cb35433fb8dfecba3149e2905a1&amp;dn=Laura+Cantrell+-+Not+The+Tremblin%5C%27+Kind+EAC+Cue+Cover&amp;tr=udp%3A%2F%2Ftracker.openbittorrent.com%3A80&amp;tr=udp%3A%2F%2Fopen.demonii.com%3A1337&amp;tr=udp%3A%2F%2Ftracker.coppersurfer.tk%3A6969&amp;tr=udp%3A%2F%2Fexodus.desync.com%3A6969","seeders":1,"leechers":0,"uploader":"sowingmyseed","files":14,"time":1241376245,"description":"Exact Audio Copy V0.99 prebeta 4 from 23. January 2008\n\nEAC extraction logfile from 3. May 2009, 9:37\n\nLaura Cantrell / Not The Tremblin' Kind\n\nUsed drive  : ATAPI   DVD D  DH16D3P   Adapter: 0  ID: 1\n\nRead mode               : Secure\nUtilize accurate stream : Yes\nDefeat audio cache      : No\nMake use of C2 pointers : No\n\nRead offset correction                      : 6\nOverread into Lead-In and Lead-Out          : No\nFill up missing offset samples with silence : Yes\nDelete leading and trailing silent blocks   : No\nNull samples used in CRC calculations       : No\nUsed interface                              : Installed external ASPI interface\nGap handling                                : Not detected, thus appended to previous track\n\nUsed output format : Internal WAV Routines\nSample format      : 44.100 Hz; 16 Bit; Stereo\n\n\nTOC of the extracted CD\n\n     Track |   Start  |  Length  | Start sector | End sector \n    ---------------------------------------------------------\n        1  |  0:00.00 |  3:37.42 |         0    |    16316   \n        2  |  3:37.42 |  4:19.20 |     16317    |    35761   \n        3  |  7:56.62 |  4:59.55 |     35762    |    58241   \n        4  | 12:56.42 |  3:34.70 |     58242    |    74361   \n        5  | 16:31.37 |  3:58.33 |     74362    |    92244   \n        6  | 20:29.70 |  2:59.35 |     92245    |   105704   \n        7  | 23:29.30 |  5:07.15 |    105705    |   128744   \n        8  | 28:36.45 |  2:44.07 |    128745    |   141051   \n        9  | 31:20.52 |  2:30.50 |    141052    |   152351   \n       10  | 33:51.27 |  4:06.68 |    152352    |   170869   \n       11  | 37:58.20 |  3:24.25 |    170870    |   186194   \n       12  | 41:22.45 |  3:48.07 |    186195    |   203301   \n\n\nTrack  1\n\n     Filename E:MusicLaura CantrellNot The Tremblin' KindLaura Cantrell - Not The Tremblin' Kind - 01. Not The Tremblin' Kind.wav\n\n     Peak level 99.8 %\n     Track quality 100.0 %\n     Copy CRC 250E72BA\n     Accurately ripped (confidence 5)  [49DE6234]\n     Copy OK\n\nTrack  2\n\n     Filename E:MusicLaura CantrellNot The Tremblin' KindLaura Cantrell - Not The Tremblin' Kind - 02. Little Bit Of You.wav\n\n     Peak level 99.8 %\n     Track quality 100.0 %\n     Copy CRC 5154ED93\n     Accurately ripped (confidence 5)  [27BE4C56]\n     Copy OK\n\nTrack  3\n\n     Filename E:MusicLaura CantrellNot The Tremblin' KindLaura Cantrell - Not The Tremblin' Kind - 03. Queen Of The Coast.wav\n\n     Peak level 99.8 %\n     Track quality 100.0 %\n     Copy CRC 52692FE7\n     Accurately ripped (confidence 5)  [04B900C1]\n     Copy OK\n\nTrack  4\n\n     Filename E:MusicLaura CantrellNot The Tremblin' KindLaura Cantrell - Not The Tremblin' Kind - 04. Pile Of Woe.wav\n\n     Peak level 99.8 %\n     Track quality 100.0 %\n     Copy CRC 555BCCF1\n     Accurately ripped (confidence 5)  [79757E57]\n     Copy OK\n\nTrack  5\n\n     Filename E:MusicLaura CantrellNot The Tremblin' KindLaura Cantrell - Not The Tremblin' Kind - 05. Two Seconds.wav\n\n     Peak level 99.8 %\n     Track quality 100.0 %\n     Copy CRC FF1A533A\n     Accurately ripped (confidence 5)  [0B500E02]\n     Copy OK\n\nTrack  6\n\n     Filename E:MusicLaura CantrellNot The Tremblin' KindLaura Cantrell - Not The Tremblin' Kind - 06. Churches Off The Interstate.wav\n\n     Peak level 99.8 %\n     Track quality 100.0 %\n     Copy CRC 16EAB4E0\n     Accurately ripped (confidence 5)  [7EB05E95]\n     Copy OK\n\nTrack  7\n\n     Filename E:MusicLaura CantrellNot The Tremblin' KindLaura Cantrell - Not The Tremblin' Kind - 07. The Whiskey Makes You Sweeter.wav\n\n     Peak level 99.8 %\n     Track quality 100.0 %\n     Copy CRC 602ED1F8\n     Accurately ripped (confidence 5)  [888D451D]\n     Copy OK\n\nTrack  8\n\n     Filename E:MusicLaura CantrellNot The Tremblin' KindLaura Cantrell - Not The Tremblin' Kind - 08. Do You Ever Think Of Me.wav\n\n     Peak level 99.8 %\n     Track quality 100.0 %\n     Copy CRC 45C3A4B0\n     Accurately ripped (confidence 5)  [2552273F]\n     Copy OK\n\nTrack  9\n\n     Filename E:MusicLaura CantrellNot The Tremblin' KindLaura Cantrell - Not The Tremblin' Kind - 09. Big Wheel.wav\n\n     Peak level 99.8 %\n     Track quality 100.0 %\n     Copy CRC C997E4B2\n     Accurately ripped (confidence 5)  [DA138C78]\n     Copy OK\n\nTrack 10\n\n     Filename E:MusicLaura CantrellNot The Tremblin' KindLaura Cantrell - Not The Tremblin' Kind - 10. My Heart Goes Out To You.wav\n\n     Peak level 99.8 %\n     Track quality 100.0 %\n     Copy CRC 66578D57\n     Accurately ripped (confidence 5)  [9A44981D]\n     Copy OK\n\nTrack 11\n\n     Filename E:MusicLaura CantrellNot The Tremblin' KindLaura Cantrell - Not The Tremblin' Kind - 11. Somewhere, Some Night.wav\n\n     Peak level 99.8 %\n     Track quality 100.0 %\n     Copy CRC FE8534FA\n     Accurately ripped (confidence 5)  [AE506D42]\n     Copy OK\n\nTrack 12\n\n     Filename E:MusicLaura CantrellNot The Tremblin' KindLaura Cantrell - Not The Tremblin' Kind - 12. The Way It Is.wav\n\n     Peak level 99.8 %\n     Track quality 100.0 %\n     Copy CRC 9BA518D3\n     Accurately ripped (confidence 5)  [11CF053A]\n     Copy OK\n\n\nAll tracks accurately ripped\n\nNo errors occurred\n\nEnd of status report\n","torrent":{"xt":"urn:btih:c87cc042187a4cb35433fb8dfecba3149e2905a1","amp;dn":"Laura+Cantrell+-+Not+The+Tremblin%5C%27+Kind+EAC+Cue+Cover","amp;tr":["udp%3A%2F%2Ftracker.openbittorrent.com%3A80","udp%3A%2F%2Fopen.demonii.com%3A1337","udp%3A%2F%2Ftracker.coppersurfer.tk%3A6969","udp%3A%2F%2Fexodus.desync.com%3A6969"],"infoHash":"c87cc042187a4cb35433fb8dfecba3149e2905a1","infoHashBuffer":{"type":"Buffer","data":[200,124,192,66,24,122,76,179,84,51,251,141,254,203,163,20,158,41,5,161]},"announce":[],"urlList":[]}}